<svg xmlns="http://www.w3.org/2000/svg" viewBox="0 0 512 512" fill="none">
  <rect width="512" height="512" rx="120" fill="#111827" />
  <circle cx="256" cy="256" r="148" fill="#f97316" fill-opacity="0.16" />
  <path d="M174 258c0-15.464 12.536-28 28-28h28v-52c0-15.464 12.536-28 28-28h4c15.464 0 28 12.536 28 28v52h28c15.464 0 28 12.536 28 28v4c0 15.464-12.536 28-28 28h-28v52c0 15.464-12.536 28-28 28h-4c-15.464 0-28-12.536-28-28v-52h-28c-15.464 0-28-12.536-28-28v-4Z" fill="#f97316" />
  <rect x="140" y="230" width="54" height="60" rx="20" fill="#fde68a" />
  <rect x="318" y="230" width="54" height="60" rx="20" fill="#fde68a" />
</svg>